<mxfile host="app.diagrams.net" modified="2023-11-22T15:59:56.420Z" agent="Mozilla/5.0 (Windows NT 10.0; Win64; x64) AppleWebKit/537.36 (KHTML, like Gecko) Chrome/119.0.0.0 Safari/537.36" etag="w4662sIRQJ68xQoNjASG" version="22.1.3" type="device">
  <diagram name="Page-1" id="B2PNNBmao15G9T13r9jo">
    <mxGraphModel dx="1728" dy="915" grid="1" gridSize="10" guides="1" tooltips="1" connect="1" arrows="1" fold="1" page="1" pageScale="1" pageWidth="850" pageHeight="1100" math="0" shadow="0">
      <root>
        <mxCell id="0" />
        <mxCell id="1" parent="0" />
        <mxCell id="RAsYpAQ-X3bV5fsjsOm7-3" style="edgeStyle=orthogonalEdgeStyle;rounded=0;orthogonalLoop=1;jettySize=auto;html=1;exitX=0.5;exitY=1;exitDx=0;exitDy=0;" edge="1" parent="1" source="RAsYpAQ-X3bV5fsjsOm7-1" target="RAsYpAQ-X3bV5fsjsOm7-2">
          <mxGeometry relative="1" as="geometry" />
        </mxCell>
        <mxCell id="RAsYpAQ-X3bV5fsjsOm7-5" style="edgeStyle=orthogonalEdgeStyle;rounded=0;orthogonalLoop=1;jettySize=auto;html=1;exitX=0.5;exitY=1;exitDx=0;exitDy=0;" edge="1" parent="1" source="RAsYpAQ-X3bV5fsjsOm7-1" target="RAsYpAQ-X3bV5fsjsOm7-4">
          <mxGeometry relative="1" as="geometry" />
        </mxCell>
        <mxCell id="RAsYpAQ-X3bV5fsjsOm7-1" value="Departamentai" style="rounded=0;whiteSpace=wrap;html=1;" vertex="1" parent="1">
          <mxGeometry x="310" y="70" width="210" height="70" as="geometry" />
        </mxCell>
        <mxCell id="RAsYpAQ-X3bV5fsjsOm7-2" value="Paskaitos" style="rounded=0;whiteSpace=wrap;html=1;" vertex="1" parent="1">
          <mxGeometry x="250" y="220" width="120" height="40" as="geometry" />
        </mxCell>
        <mxCell id="RAsYpAQ-X3bV5fsjsOm7-4" value="Studentai" style="rounded=0;whiteSpace=wrap;html=1;" vertex="1" parent="1">
          <mxGeometry x="460" y="220" width="120" height="40" as="geometry" />
        </mxCell>
      </root>
    </mxGraphModel>
  </diagram>
</mxfile>
